<svg width="102" height="102" viewBox="0 0 102 102" fill="none" xmlns="http://www.w3.org/2000/svg">
<path d="M97.5447 23.8995C97.8241 24.3834 98.0961 24.8721 98.3608 25.3654C97.8802 25.051 97.559 24.5132 97.5447 23.8995Z" fill="#FF9D01"/>
<path d="M87.6796 11.4609C88.5192 12.2487 89.3335 13.0631 90.1214 13.9027C89.8167 14.4657 89.2209 14.8482 88.5358 14.8482C87.5407 14.8482 86.7341 14.0416 86.7341 13.0465C86.7341 12.3614 87.1165 11.7655 87.6796 11.4609Z" fill="#FF9D01"/>
<path d="M76.2169 3.22148C76.7101 3.48613 77.1988 3.75821 77.6828 4.03757C77.0691 4.02324 76.5313 3.70205 76.2169 3.22148Z" fill="#FF9D01"/>
<path d="M23.7178 4.03757C24.2018 3.75821 24.6905 3.48613 25.1838 3.22148C24.8694 3.70205 24.3316 4.02324 23.7178 4.03757Z" fill="#FF9D01"/>
<path d="M11.2792 13.9027C12.0671 13.0631 12.8815 12.2487 13.721 11.4609C14.2841 11.7655 14.6666 12.3614 14.6666 13.0465C14.6666 14.0416 13.8599 14.8482 12.8649 14.8482C12.1797 14.8482 11.5839 14.4657 11.2792 13.9027Z" fill="#FF9D01"/>
<path d="M3.03984 25.3654C3.30449 24.8721 3.57656 24.3834 3.85593 23.8995C3.8416 24.5132 3.52041 25.051 3.03984 25.3654Z" fill="#FF9D01"/>
<path d="M98.3608 76.3985C98.0961 76.8918 97.8241 77.3805 97.5447 77.8644C97.559 77.2507 97.8802 76.7129 98.3608 76.3985Z" fill="#FF9D01"/>
<path d="M90.1214 87.8612C89.8167 87.2982 89.2209 86.9157 88.5358 86.9157C87.5407 86.9157 86.7341 87.7224 86.7341 88.7174C86.7341 89.4026 87.1165 89.9984 87.6796 90.3031C88.5192 89.5152 89.3335 88.7008 90.1214 87.8612Z" fill="#FF9D01"/>
<path d="M77.6828 97.7263C77.0691 97.7407 76.5313 98.0619 76.2169 98.5424C76.7101 98.2778 77.1988 98.0057 77.6828 97.7263Z" fill="#FF9D01"/>
<path d="M25.1838 98.5424C24.8694 98.0619 24.3316 97.7407 23.7178 97.7263C24.2018 98.0057 24.6905 98.2778 25.1838 98.5424Z" fill="#FF9D01"/>
<path d="M13.721 90.3031C14.2841 89.9984 14.6666 89.4026 14.6666 88.7174C14.6666 87.7224 13.8599 86.9157 12.8649 86.9157C12.1797 86.9157 11.5839 87.2982 11.2792 87.8612C12.0671 88.7008 12.8815 89.5152 13.721 90.3031Z" fill="#FF9D01"/>
<path d="M3.85593 77.8644C3.8416 77.2507 3.52041 76.7129 3.03984 76.3985C3.30449 76.8918 3.57656 77.3805 3.85593 77.8644Z" fill="#FF9D01"/>
<path d="M36.2868 2.23638C36.2868 3.23143 35.4802 4.03807 34.4851 4.03807C33.4901 4.03807 32.6834 3.23143 32.6834 2.23638C32.6834 1.24134 33.4901 0.434692 34.4851 0.434692C35.4802 0.434692 36.2868 1.24134 36.2868 2.23638Z" fill="#FF9D01"/>
<path d="M47.0969 2.23638C47.0969 3.23143 46.2903 4.03807 45.2953 4.03807C44.3002 4.03807 43.4936 3.23143 43.4936 2.23638C43.4936 1.24134 44.3002 0.434692 45.2953 0.434692C46.2903 0.434692 47.0969 1.24134 47.0969 2.23638Z" fill="#FF9D01"/>
<path d="M57.9071 2.23638C57.9071 3.23143 57.1004 4.03807 56.1054 4.03807C55.1103 4.03807 54.3037 3.23143 54.3037 2.23638C54.3037 1.24134 55.1103 0.434692 56.1054 0.434692C57.1004 0.434692 57.9071 1.24134 57.9071 2.23638Z" fill="#FF9D01"/>
<path d="M68.7172 2.23638C68.7172 3.23143 67.9106 4.03807 66.9155 4.03807C65.9205 4.03807 65.1138 3.23143 65.1138 2.23638C65.1138 1.24134 65.9205 0.434692 66.9155 0.434692C67.9106 0.434692 68.7172 1.24134 68.7172 2.23638Z" fill="#FF9D01"/>
<path d="M25.4767 13.0465C25.4767 14.0416 24.67 14.8482 23.675 14.8482C22.68 14.8482 21.8733 14.0416 21.8733 13.0465C21.8733 12.0515 22.68 11.2448 23.675 11.2448C24.67 11.2448 25.4767 12.0515 25.4767 13.0465Z" fill="#FF9D01"/>
<path d="M36.2868 13.0465C36.2868 14.0416 35.4802 14.8482 34.4851 14.8482C33.4901 14.8482 32.6834 14.0416 32.6834 13.0465C32.6834 12.0515 33.4901 11.2448 34.4851 11.2448C35.4802 11.2448 36.2868 12.0515 36.2868 13.0465Z" fill="#FF9D01"/>
<path d="M47.0969 13.0465C47.0969 14.0416 46.2903 14.8482 45.2953 14.8482C44.3002 14.8482 43.4936 14.0416 43.4936 13.0465C43.4936 12.0515 44.3002 11.2448 45.2953 11.2448C46.2903 11.2448 47.0969 12.0515 47.0969 13.0465Z" fill="#FF9D01"/>
<path d="M57.9071 13.0465C57.9071 14.0416 57.1004 14.8482 56.1054 14.8482C55.1103 14.8482 54.3037 14.0416 54.3037 13.0465C54.3037 12.0515 55.1103 11.2448 56.1054 11.2448C57.1004 11.2448 57.9071 12.0515 57.9071 13.0465Z" fill="#FF9D01"/>
<path d="M68.7172 13.0465C68.7172 14.0416 67.9106 14.8482 66.9155 14.8482C65.9205 14.8482 65.1138 14.0416 65.1138 13.0465C65.1138 12.0515 65.9205 11.2448 66.9155 11.2448C67.9106 11.2448 68.7172 12.0515 68.7172 13.0465Z" fill="#FF9D01"/>
<path d="M79.5273 13.0465C79.5273 14.0416 78.7207 14.8482 77.7256 14.8482C76.7306 14.8482 75.924 14.0416 75.924 13.0465C75.924 12.0515 76.7306 11.2448 77.7256 11.2448C78.7207 11.2448 79.5273 12.0515 79.5273 13.0465Z" fill="#FF9D01"/>
<path d="M14.6666 23.8566C14.6666 24.8517 13.8599 25.6583 12.8649 25.6583C11.8698 25.6583 11.0632 24.8517 11.0632 23.8566C11.0632 22.8616 11.8698 22.0549 12.8649 22.0549C13.8599 22.0549 14.6666 22.8616 14.6666 23.8566Z" fill="#FF9D01"/>
<path d="M25.4767 23.8566C25.4767 24.8517 24.67 25.6583 23.675 25.6583C22.68 25.6583 21.8733 24.8517 21.8733 23.8566C21.8733 22.8616 22.68 22.0549 23.675 22.0549C24.67 22.0549 25.4767 22.8616 25.4767 23.8566Z" fill="#FF9D01"/>
<path d="M36.2868 23.8566C36.2868 24.8517 35.4802 25.6583 34.4851 25.6583C33.4901 25.6583 32.6834 24.8517 32.6834 23.8566C32.6834 22.8616 33.4901 22.0549 34.4851 22.0549C35.4802 22.0549 36.2868 22.8616 36.2868 23.8566Z" fill="#FF9D01"/>
<path d="M47.0969 23.8566C47.0969 24.8517 46.2903 25.6583 45.2953 25.6583C44.3002 25.6583 43.4936 24.8517 43.4936 23.8566C43.4936 22.8616 44.3002 22.0549 45.2953 22.0549C46.2903 22.0549 47.0969 22.8616 47.0969 23.8566Z" fill="#FF9D01"/>
<path d="M57.9071 23.8566C57.9071 24.8517 57.1004 25.6583 56.1054 25.6583C55.1103 25.6583 54.3037 24.8517 54.3037 23.8566C54.3037 22.8616 55.1103 22.0549 56.1054 22.0549C57.1004 22.0549 57.9071 22.8616 57.9071 23.8566Z" fill="#FF9D01"/>
<path d="M68.7172 23.8566C68.7172 24.8517 67.9106 25.6583 66.9155 25.6583C65.9205 25.6583 65.1138 24.8517 65.1138 23.8566C65.1138 22.8616 65.9205 22.0549 66.9155 22.0549C67.9106 22.0549 68.7172 22.8616 68.7172 23.8566Z" fill="#FF9D01"/>
<path d="M79.5273 23.8566C79.5273 24.8517 78.7207 25.6583 77.7256 25.6583C76.7306 25.6583 75.924 24.8517 75.924 23.8566C75.924 22.8616 76.7306 22.0549 77.7256 22.0549C78.7207 22.0549 79.5273 22.8616 79.5273 23.8566Z" fill="#FF9D01"/>
<path d="M90.3375 23.8566C90.3375 24.8517 89.5308 25.6583 88.5358 25.6583C87.5407 25.6583 86.7341 24.8517 86.7341 23.8566C86.7341 22.8616 87.5407 22.0549 88.5358 22.0549C89.5308 22.0549 90.3375 22.8616 90.3375 23.8566Z" fill="#FF9D01"/>
<path d="M3.85643 34.6668C3.85643 35.6618 3.04978 36.4685 2.05474 36.4685C1.0597 36.4685 0.253052 35.6618 0.253052 34.6668C0.253052 33.6717 1.0597 32.8651 2.05474 32.8651C3.04978 32.8651 3.85643 33.6717 3.85643 34.6668Z" fill="#FF9D01"/>
<path d="M14.6666 34.6668C14.6666 35.6618 13.8599 36.4685 12.8649 36.4685C11.8698 36.4685 11.0632 35.6618 11.0632 34.6668C11.0632 33.6717 11.8698 32.8651 12.8649 32.8651C13.8599 32.8651 14.6666 33.6717 14.6666 34.6668Z" fill="#FF9D01"/>
<path d="M25.4767 34.6668C25.4767 35.6618 24.67 36.4685 23.675 36.4685C22.68 36.4685 21.8733 35.6618 21.8733 34.6668C21.8733 33.6717 22.68 32.8651 23.675 32.8651C24.67 32.8651 25.4767 33.6717 25.4767 34.6668Z" fill="#FF9D01"/>
<path d="M36.2868 34.6668C36.2868 35.6618 35.4802 36.4685 34.4851 36.4685C33.4901 36.4685 32.6834 35.6618 32.6834 34.6668C32.6834 33.6717 33.4901 32.8651 34.4851 32.8651C35.4802 32.8651 36.2868 33.6717 36.2868 34.6668Z" fill="#FF9D01"/>
<path d="M47.0969 34.6668C47.0969 35.6618 46.2903 36.4685 45.2953 36.4685C44.3002 36.4685 43.4936 35.6618 43.4936 34.6668C43.4936 33.6717 44.3002 32.8651 45.2953 32.8651C46.2903 32.8651 47.0969 33.6717 47.0969 34.6668Z" fill="#FF9D01"/>
<path d="M57.9071 34.6668C57.9071 35.6618 57.1004 36.4685 56.1054 36.4685C55.1103 36.4685 54.3037 35.6618 54.3037 34.6668C54.3037 33.6717 55.1103 32.8651 56.1054 32.8651C57.1004 32.8651 57.9071 33.6717 57.9071 34.6668Z" fill="#FF9D01"/>
<path d="M68.7172 34.6668C68.7172 35.6618 67.9106 36.4685 66.9155 36.4685C65.9205 36.4685 65.1138 35.6618 65.1138 34.6668C65.1138 33.6717 65.9205 32.8651 66.9155 32.8651C67.9106 32.8651 68.7172 33.6717 68.7172 34.6668Z" fill="#FF9D01"/>
<path d="M79.5273 34.6668C79.5273 35.6618 78.7207 36.4685 77.7256 36.4685C76.7306 36.4685 75.924 35.6618 75.924 34.6668C75.924 33.6717 76.7306 32.8651 77.7256 32.8651C78.7207 32.8651 79.5273 33.6717 79.5273 34.6668Z" fill="#FF9D01"/>
<path d="M90.3375 34.6668C90.3375 35.6618 89.5308 36.4685 88.5358 36.4685C87.5407 36.4685 86.7341 35.6618 86.7341 34.6668C86.7341 33.6717 87.5407 32.8651 88.5358 32.8651C89.5308 32.8651 90.3375 33.6717 90.3375 34.6668Z" fill="#FF9D01"/>
<path d="M101.148 34.6668C101.148 35.6618 100.341 36.4685 99.3459 36.4685C98.3509 36.4685 97.5442 35.6618 97.5442 34.6668C97.5442 33.6717 98.3509 32.8651 99.3459 32.8651C100.341 32.8651 101.148 33.6717 101.148 34.6668Z" fill="#FF9D01"/>
<path d="M3.85643 45.4769C3.85643 46.4719 3.04978 47.2786 2.05474 47.2786C1.0597 47.2786 0.253052 46.4719 0.253052 45.4769C0.253052 44.4818 1.0597 43.6752 2.05474 43.6752C3.04978 43.6752 3.85643 44.4818 3.85643 45.4769Z" fill="#FF9D01"/>
<path d="M14.6666 45.4769C14.6666 46.4719 13.8599 47.2786 12.8649 47.2786C11.8698 47.2786 11.0632 46.4719 11.0632 45.4769C11.0632 44.4818 11.8698 43.6752 12.8649 43.6752C13.8599 43.6752 14.6666 44.4818 14.6666 45.4769Z" fill="#FF9D01"/>
<path d="M25.4767 45.4769C25.4767 46.4719 24.67 47.2786 23.675 47.2786C22.68 47.2786 21.8733 46.4719 21.8733 45.4769C21.8733 44.4818 22.68 43.6752 23.675 43.6752C24.67 43.6752 25.4767 44.4818 25.4767 45.4769Z" fill="#FF9D01"/>
<path d="M36.2868 45.4769C36.2868 46.4719 35.4802 47.2786 34.4851 47.2786C33.4901 47.2786 32.6834 46.4719 32.6834 45.4769C32.6834 44.4818 33.4901 43.6752 34.4851 43.6752C35.4802 43.6752 36.2868 44.4818 36.2868 45.4769Z" fill="#FF9D01"/>
<path d="M47.0969 45.4769C47.0969 46.4719 46.2903 47.2786 45.2953 47.2786C44.3002 47.2786 43.4936 46.4719 43.4936 45.4769C43.4936 44.4818 44.3002 43.6752 45.2953 43.6752C46.2903 43.6752 47.0969 44.4818 47.0969 45.4769Z" fill="#FF9D01"/>
<path d="M57.9071 45.4769C57.9071 46.4719 57.1004 47.2786 56.1054 47.2786C55.1103 47.2786 54.3037 46.4719 54.3037 45.4769C54.3037 44.4818 55.1103 43.6752 56.1054 43.6752C57.1004 43.6752 57.9071 44.4818 57.9071 45.4769Z" fill="#FF9D01"/>
<path d="M68.7172 45.4769C68.7172 46.4719 67.9106 47.2786 66.9155 47.2786C65.9205 47.2786 65.1138 46.4719 65.1138 45.4769C65.1138 44.4818 65.9205 43.6752 66.9155 43.6752C67.9106 43.6752 68.7172 44.4818 68.7172 45.4769Z" fill="#FF9D01"/>
<path d="M79.5273 45.4769C79.5273 46.4719 78.7207 47.2786 77.7256 47.2786C76.7306 47.2786 75.924 46.4719 75.924 45.4769C75.924 44.4818 76.7306 43.6752 77.7256 43.6752C78.7207 43.6752 79.5273 44.4818 79.5273 45.4769Z" fill="#FF9D01"/>
<path d="M90.3375 45.4769C90.3375 46.4719 89.5308 47.2786 88.5358 47.2786C87.5407 47.2786 86.7341 46.4719 86.7341 45.4769C86.7341 44.4818 87.5407 43.6752 88.5358 43.6752C89.5308 43.6752 90.3375 44.4818 90.3375 45.4769Z" fill="#FF9D01"/>
<path d="M101.148 45.4769C101.148 46.4719 100.341 47.2786 99.3459 47.2786C98.3509 47.2786 97.5442 46.4719 97.5442 45.4769C97.5442 44.4818 98.3509 43.6752 99.3459 43.6752C100.341 43.6752 101.148 44.4818 101.148 45.4769Z" fill="#FF9D01"/>
<path d="M3.85643 56.287C3.85643 57.2821 3.04978 58.0887 2.05474 58.0887C1.0597 58.0887 0.253052 57.2821 0.253052 56.287C0.253052 55.292 1.0597 54.4853 2.05474 54.4853C3.04978 54.4853 3.85643 55.292 3.85643 56.287Z" fill="#FF9D01"/>
<path d="M14.6666 56.287C14.6666 57.2821 13.8599 58.0887 12.8649 58.0887C11.8698 58.0887 11.0632 57.2821 11.0632 56.287C11.0632 55.292 11.8698 54.4853 12.8649 54.4853C13.8599 54.4853 14.6666 55.292 14.6666 56.287Z" fill="#FF9D01"/>
<path d="M25.4767 56.287C25.4767 57.2821 24.67 58.0887 23.675 58.0887C22.68 58.0887 21.8733 57.2821 21.8733 56.287C21.8733 55.292 22.68 54.4853 23.675 54.4853C24.67 54.4853 25.4767 55.292 25.4767 56.287Z" fill="#FF9D01"/>
<path d="M36.2868 56.287C36.2868 57.2821 35.4802 58.0887 34.4851 58.0887C33.4901 58.0887 32.6834 57.2821 32.6834 56.287C32.6834 55.292 33.4901 54.4853 34.4851 54.4853C35.4802 54.4853 36.2868 55.292 36.2868 56.287Z" fill="#FF9D01"/>
<path d="M47.0969 56.287C47.0969 57.2821 46.2903 58.0887 45.2953 58.0887C44.3002 58.0887 43.4936 57.2821 43.4936 56.287C43.4936 55.292 44.3002 54.4853 45.2953 54.4853C46.2903 54.4853 47.0969 55.292 47.0969 56.287Z" fill="#FF9D01"/>
<path d="M57.9071 56.287C57.9071 57.2821 57.1004 58.0887 56.1054 58.0887C55.1103 58.0887 54.3037 57.2821 54.3037 56.287C54.3037 55.292 55.1103 54.4853 56.1054 54.4853C57.1004 54.4853 57.9071 55.292 57.9071 56.287Z" fill="#FF9D01"/>
<path d="M68.7172 56.287C68.7172 57.2821 67.9106 58.0887 66.9155 58.0887C65.9205 58.0887 65.1138 57.2821 65.1138 56.287C65.1138 55.292 65.9205 54.4853 66.9155 54.4853C67.9106 54.4853 68.7172 55.292 68.7172 56.287Z" fill="#FF9D01"/>
<path d="M79.5273 56.287C79.5273 57.2821 78.7207 58.0887 77.7256 58.0887C76.7306 58.0887 75.924 57.2821 75.924 56.287C75.924 55.292 76.7306 54.4853 77.7256 54.4853C78.7207 54.4853 79.5273 55.292 79.5273 56.287Z" fill="#FF9D01"/>
<path d="M90.3375 56.287C90.3375 57.2821 89.5308 58.0887 88.5358 58.0887C87.5407 58.0887 86.7341 57.2821 86.7341 56.287C86.7341 55.292 87.5407 54.4853 88.5358 54.4853C89.5308 54.4853 90.3375 55.292 90.3375 56.287Z" fill="#FF9D01"/>
<path d="M101.148 56.287C101.148 57.2821 100.341 58.0887 99.3459 58.0887C98.3509 58.0887 97.5442 57.2821 97.5442 56.287C97.5442 55.292 98.3509 54.4853 99.3459 54.4853C100.341 54.4853 101.148 55.292 101.148 56.287Z" fill="#FF9D01"/>
<path d="M3.85643 67.0972C3.85643 68.0922 3.04978 68.8988 2.05474 68.8988C1.0597 68.8988 0.253052 68.0922 0.253052 67.0972C0.253052 66.1021 1.0597 65.2955 2.05474 65.2955C3.04978 65.2955 3.85643 66.1021 3.85643 67.0972Z" fill="#FF9D01"/>
<path d="M14.6666 67.0972C14.6666 68.0922 13.8599 68.8988 12.8649 68.8988C11.8698 68.8988 11.0632 68.0922 11.0632 67.0972C11.0632 66.1021 11.8698 65.2955 12.8649 65.2955C13.8599 65.2955 14.6666 66.1021 14.6666 67.0972Z" fill="#FF9D01"/>
<path d="M25.4767 67.0972C25.4767 68.0922 24.67 68.8988 23.675 68.8988C22.68 68.8988 21.8733 68.0922 21.8733 67.0972C21.8733 66.1021 22.68 65.2955 23.675 65.2955C24.67 65.2955 25.4767 66.1021 25.4767 67.0972Z" fill="#FF9D01"/>
<path d="M36.2868 67.0972C36.2868 68.0922 35.4802 68.8988 34.4851 68.8988C33.4901 68.8988 32.6834 68.0922 32.6834 67.0972C32.6834 66.1021 33.4901 65.2955 34.4851 65.2955C35.4802 65.2955 36.2868 66.1021 36.2868 67.0972Z" fill="#FF9D01"/>
<path d="M47.0969 67.0972C47.0969 68.0922 46.2903 68.8988 45.2953 68.8988C44.3002 68.8988 43.4936 68.0922 43.4936 67.0972C43.4936 66.1021 44.3002 65.2955 45.2953 65.2955C46.2903 65.2955 47.0969 66.1021 47.0969 67.0972Z" fill="#FF9D01"/>
<path d="M57.9071 67.0972C57.9071 68.0922 57.1004 68.8988 56.1054 68.8988C55.1103 68.8988 54.3037 68.0922 54.3037 67.0972C54.3037 66.1021 55.1103 65.2955 56.1054 65.2955C57.1004 65.2955 57.9071 66.1021 57.9071 67.0972Z" fill="#FF9D01"/>
<path d="M68.7172 67.0972C68.7172 68.0922 67.9106 68.8988 66.9155 68.8988C65.9205 68.8988 65.1138 68.0922 65.1138 67.0972C65.1138 66.1021 65.9205 65.2955 66.9155 65.2955C67.9106 65.2955 68.7172 66.1021 68.7172 67.0972Z" fill="#FF9D01"/>
<path d="M79.5273 67.0972C79.5273 68.0922 78.7207 68.8988 77.7256 68.8988C76.7306 68.8988 75.924 68.0922 75.924 67.0972C75.924 66.1021 76.7306 65.2955 77.7256 65.2955C78.7207 65.2955 79.5273 66.1021 79.5273 67.0972Z" fill="#FF9D01"/>
<path d="M90.3375 67.0972C90.3375 68.0922 89.5308 68.8988 88.5358 68.8988C87.5407 68.8988 86.7341 68.0922 86.7341 67.0972C86.7341 66.1021 87.5407 65.2955 88.5358 65.2955C89.5308 65.2955 90.3375 66.1021 90.3375 67.0972Z" fill="#FF9D01"/>
<path d="M101.148 67.0972C101.148 68.0922 100.341 68.8988 99.3459 68.8988C98.3509 68.8988 97.5442 68.0922 97.5442 67.0972C97.5442 66.1021 98.3509 65.2955 99.3459 65.2955C100.341 65.2955 101.148 66.1021 101.148 67.0972Z" fill="#FF9D01"/>
<path d="M14.6666 77.9073C14.6666 78.9023 13.8599 79.709 12.8649 79.709C11.8698 79.709 11.0632 78.9023 11.0632 77.9073C11.0632 76.9122 11.8698 76.1056 12.8649 76.1056C13.8599 76.1056 14.6666 76.9122 14.6666 77.9073Z" fill="#FF9D01"/>
<path d="M25.4767 77.9073C25.4767 78.9023 24.67 79.709 23.675 79.709C22.68 79.709 21.8733 78.9023 21.8733 77.9073C21.8733 76.9122 22.68 76.1056 23.675 76.1056C24.67 76.1056 25.4767 76.9122 25.4767 77.9073Z" fill="#FF9D01"/>
<path d="M36.2868 77.9073C36.2868 78.9023 35.4802 79.709 34.4851 79.709C33.4901 79.709 32.6834 78.9023 32.6834 77.9073C32.6834 76.9122 33.4901 76.1056 34.4851 76.1056C35.4802 76.1056 36.2868 76.9122 36.2868 77.9073Z" fill="#FF9D01"/>
<path d="M47.0969 77.9073C47.0969 78.9023 46.2903 79.709 45.2953 79.709C44.3002 79.709 43.4936 78.9023 43.4936 77.9073C43.4936 76.9122 44.3002 76.1056 45.2953 76.1056C46.2903 76.1056 47.0969 76.9122 47.0969 77.9073Z" fill="#FF9D01"/>
<path d="M57.9071 77.9073C57.9071 78.9023 57.1004 79.709 56.1054 79.709C55.1103 79.709 54.3037 78.9023 54.3037 77.9073C54.3037 76.9122 55.1103 76.1056 56.1054 76.1056C57.1004 76.1056 57.9071 76.9122 57.9071 77.9073Z" fill="#FF9D01"/>
<path d="M68.7172 77.9073C68.7172 78.9023 67.9106 79.709 66.9155 79.709C65.9205 79.709 65.1138 78.9023 65.1138 77.9073C65.1138 76.9122 65.9205 76.1056 66.9155 76.1056C67.9106 76.1056 68.7172 76.9122 68.7172 77.9073Z" fill="#FF9D01"/>
<path d="M79.5273 77.9073C79.5273 78.9023 78.7207 79.709 77.7256 79.709C76.7306 79.709 75.924 78.9023 75.924 77.9073C75.924 76.9122 76.7306 76.1056 77.7256 76.1056C78.7207 76.1056 79.5273 76.9122 79.5273 77.9073Z" fill="#FF9D01"/>
<path d="M90.3375 77.9073C90.3375 78.9023 89.5308 79.709 88.5358 79.709C87.5407 79.709 86.7341 78.9023 86.7341 77.9073C86.7341 76.9122 87.5407 76.1056 88.5358 76.1056C89.5308 76.1056 90.3375 76.9122 90.3375 77.9073Z" fill="#FF9D01"/>
<path d="M25.4767 88.7174C25.4767 89.7125 24.67 90.5191 23.675 90.5191C22.68 90.5191 21.8733 89.7125 21.8733 88.7174C21.8733 87.7224 22.68 86.9157 23.675 86.9157C24.67 86.9157 25.4767 87.7224 25.4767 88.7174Z" fill="#FF9D01"/>
<path d="M36.2868 88.7174C36.2868 89.7125 35.4802 90.5191 34.4851 90.5191C33.4901 90.5191 32.6834 89.7125 32.6834 88.7174C32.6834 87.7224 33.4901 86.9157 34.4851 86.9157C35.4802 86.9157 36.2868 87.7224 36.2868 88.7174Z" fill="#FF9D01"/>
<path d="M47.0969 88.7174C47.0969 89.7125 46.2903 90.5191 45.2953 90.5191C44.3002 90.5191 43.4936 89.7125 43.4936 88.7174C43.4936 87.7224 44.3002 86.9157 45.2953 86.9157C46.2903 86.9157 47.0969 87.7224 47.0969 88.7174Z" fill="#FF9D01"/>
<path d="M57.9071 88.7174C57.9071 89.7125 57.1004 90.5191 56.1054 90.5191C55.1103 90.5191 54.3037 89.7125 54.3037 88.7174C54.3037 87.7224 55.1103 86.9157 56.1054 86.9157C57.1004 86.9157 57.9071 87.7224 57.9071 88.7174Z" fill="#FF9D01"/>
<path d="M68.7172 88.7174C68.7172 89.7125 67.9106 90.5191 66.9155 90.5191C65.9205 90.5191 65.1138 89.7125 65.1138 88.7174C65.1138 87.7224 65.9205 86.9157 66.9155 86.9157C67.9106 86.9157 68.7172 87.7224 68.7172 88.7174Z" fill="#FF9D01"/>
<path d="M79.5273 88.7174C79.5273 89.7125 78.7207 90.5191 77.7256 90.5191C76.7306 90.5191 75.924 89.7125 75.924 88.7174C75.924 87.7224 76.7306 86.9157 77.7256 86.9157C78.7207 86.9157 79.5273 87.7224 79.5273 88.7174Z" fill="#FF9D01"/>
<path d="M36.2868 99.5275C36.2868 100.523 35.4802 101.329 34.4851 101.329C33.4901 101.329 32.6834 100.523 32.6834 99.5275C32.6834 98.5325 33.4901 97.7258 34.4851 97.7258C35.4802 97.7258 36.2868 98.5325 36.2868 99.5275Z" fill="#FF9D01"/>
<path d="M47.0969 99.5275C47.0969 100.523 46.2903 101.329 45.2953 101.329C44.3002 101.329 43.4936 100.523 43.4936 99.5275C43.4936 98.5325 44.3002 97.7258 45.2953 97.7258C46.2903 97.7258 47.0969 98.5325 47.0969 99.5275Z" fill="#FF9D01"/>
<path d="M57.9071 99.5275C57.9071 100.523 57.1004 101.329 56.1054 101.329C55.1103 101.329 54.3037 100.523 54.3037 99.5275C54.3037 98.5325 55.1103 97.7258 56.1054 97.7258C57.1004 97.7258 57.9071 98.5325 57.9071 99.5275Z" fill="#FF9D01"/>
<path d="M68.7172 99.5275C68.7172 100.523 67.9106 101.329 66.9155 101.329C65.9205 101.329 65.1138 100.523 65.1138 99.5275C65.1138 98.5325 65.9205 97.7258 66.9155 97.7258C67.9106 97.7258 68.7172 98.5325 68.7172 99.5275Z" fill="#FF9D01"/>
</svg>
