<?xml version="1.0" encoding="UTF-8" standalone="no" ?>
<!DOCTYPE svg PUBLIC "-//W3C//DTD SVG 1.1//EN" "http://www.w3.org/Graphics/SVG/1.1/DTD/svg11.dtd">
<svg xmlns="http://www.w3.org/2000/svg" xmlns:xlink="http://www.w3.org/1999/xlink" version="1.1" width="1080" height="1080" viewBox="0 0 1080 1080" xml:space="preserve">
<desc>Created with Fabric.js 5.2.4</desc>
<defs>
</defs>
<rect x="0" y="0" width="100%" height="100%" fill="transparent"></rect>
<g transform="matrix(1 0 0 1 540 540)" id="8195121a-67dd-4a07-b162-1529d779e295"  >
<rect style="stroke: none; stroke-width: 1; stroke-dasharray: none; stroke-linecap: butt; stroke-dashoffset: 0; stroke-linejoin: miter; stroke-miterlimit: 4; fill: rgb(255,255,255); fill-rule: nonzero; opacity: 1; visibility: hidden;" vector-effect="non-scaling-stroke"  x="-540" y="-540" rx="0" ry="0" width="1080" height="1080" />
</g>
<g transform="matrix(1 0 0 1 540 540)" id="a518d6a0-185c-42d9-9bbe-cea9b4c94c00"  >
</g>
<g transform="matrix(10.29 0 0 10.29 540 540)"  >
<path style="stroke: rgb(37,120,110); stroke-width: 1; stroke-dasharray: none; stroke-linecap: butt; stroke-dashoffset: 0; stroke-linejoin: miter; stroke-miterlimit: 4; fill: none; fill-rule: nonzero; opacity: 1;"  transform=" translate(-52.46, -40.61)" d="M 16.3683 77.0767 C -6.06733 56.2321 5.98751 34.0868 20.8567 22.5984 C 43.1054 5.40842 83.416 -6.17889 96.3017 17.6419 C 109.187 41.4626 94.7583 65.3167 59.0899 74.2886 C 32.0749 81.0839 20.251 61.1925 23.3708 47.3168 C 26.8726 31.7417 45.1627 21.053 59.3688 18.4652 C 75.5817 15.5118 82.7579 23.872 84.4085 35.2802 C 86.4607 49.4638 66.7463 60.2186 55.601 59.0296 C 44.4557 57.8406 44.4995 45.3967 48.5522 39.6066" stroke-linecap="round" />
</g>
<g transform="matrix(10.29 0 0 10.29 540 540)"  >
<path style="stroke: rgb(37,120,110); stroke-width: 1; stroke-dasharray: none; stroke-linecap: butt; stroke-dashoffset: 0; stroke-linejoin: miter; stroke-miterlimit: 4; fill: none; fill-rule: nonzero; opacity: 1;"  transform=" translate(-52.46, -40.61)" d="M 16.3683 77.0767 C -6.06733 56.2321 5.98751 34.0868 20.8567 22.5984 C 43.1054 5.40842 83.416 -6.17889 96.3017 17.6419 C 109.187 41.4626 94.7583 65.3167 59.0899 74.2886 C 32.0749 81.0839 20.251 61.1925 23.3708 47.3168 C 26.8726 31.7417 45.1627 21.053 59.3688 18.4652 C 75.5817 15.5118 82.7579 23.872 84.4085 35.2802 C 86.4607 49.4638 66.7463 60.2186 55.601 59.0296 C 44.4557 57.8406 44.4995 45.3967 48.5522 39.6066" stroke-linecap="round" />
</g>
<g transform="matrix(10.29 0 0 10.29 540 540)"  >
<path style="stroke: rgb(37,120,110); stroke-width: 1; stroke-dasharray: none; stroke-linecap: butt; stroke-dashoffset: 0; stroke-linejoin: miter; stroke-miterlimit: 4; fill: none; fill-rule: nonzero; opacity: 1;"  transform=" translate(-52.46, -40.61)" d="M 16.3683 77.0767 C -6.06733 56.2321 5.98751 34.0868 20.8567 22.5984 C 43.1054 5.40842 83.416 -6.17889 96.3017 17.6419 C 109.187 41.4626 94.7583 65.3167 59.0899 74.2886 C 32.0749 81.0839 20.251 61.1925 23.3708 47.3168 C 26.8726 31.7417 45.1627 21.053 59.3688 18.4652 C 75.5817 15.5118 82.7579 23.872 84.4085 35.2802 C 86.4607 49.4638 66.7463 60.2186 55.601 59.0296 C 44.4557 57.8406 44.4995 45.3967 48.5522 39.6066" stroke-linecap="round" />
</g>
<g transform="matrix(10.29 0 0 10.29 540 540)"  >
<path style="stroke: rgb(37,120,110); stroke-width: 1; stroke-dasharray: none; stroke-linecap: butt; stroke-dashoffset: 0; stroke-linejoin: miter; stroke-miterlimit: 4; fill: none; fill-rule: nonzero; opacity: 1;"  transform=" translate(-52.46, -40.61)" d="M 16.3683 77.0767 C -6.06733 56.2321 5.98751 34.0868 20.8567 22.5984 C 43.1054 5.40842 83.416 -6.17889 96.3017 17.6419 C 109.187 41.4626 94.7583 65.3167 59.0899 74.2886 C 32.0749 81.0839 20.251 61.1925 23.3708 47.3168 C 26.8726 31.7417 45.1627 21.053 59.3688 18.4652 C 75.5817 15.5118 82.7579 23.872 84.4085 35.2802 C 86.4607 49.4638 66.7463 60.2186 55.601 59.0296 C 44.4557 57.8406 44.4995 45.3967 48.5522 39.6066" stroke-linecap="round" />
</g>
<g transform="matrix(10.29 0 0 10.29 540 540)"  >
<path style="stroke: rgb(37,120,110); stroke-width: 1; stroke-dasharray: none; stroke-linecap: butt; stroke-dashoffset: 0; stroke-linejoin: miter; stroke-miterlimit: 4; fill: none; fill-rule: nonzero; opacity: 1;"  transform=" translate(-52.46, -40.61)" d="M 16.3683 77.0767 C -6.06733 56.2321 5.98751 34.0868 20.8567 22.5984 C 43.1054 5.40842 83.416 -6.17889 96.3017 17.6419 C 109.187 41.4626 94.7583 65.3167 59.0899 74.2886 C 32.0749 81.0839 20.251 61.1925 23.3708 47.3168 C 26.8726 31.7417 45.1627 21.053 59.3688 18.4652 C 75.5817 15.5118 82.7579 23.872 84.4085 35.2802 C 86.4607 49.4638 66.7463 60.2186 55.601 59.0296 C 44.4557 57.8406 44.4995 45.3967 48.5522 39.6066" stroke-linecap="round" />
</g>
<g transform="matrix(10.29 0 0 10.29 540 540)"  >
<path style="stroke: rgb(37,120,110); stroke-width: 1; stroke-dasharray: none; stroke-linecap: butt; stroke-dashoffset: 0; stroke-linejoin: miter; stroke-miterlimit: 4; fill: none; fill-rule: nonzero; opacity: 1;"  transform=" translate(-52.46, -40.61)" d="M 16.3683 77.0767 C -6.06733 56.2321 5.98751 34.0868 20.8567 22.5984 C 43.1054 5.40842 83.416 -6.17889 96.3017 17.6419 C 109.187 41.4626 94.7583 65.3167 59.0899 74.2886 C 32.0749 81.0839 20.251 61.1925 23.3708 47.3168 C 26.8726 31.7417 45.1627 21.053 59.3688 18.4652 C 75.5817 15.5118 82.7579 23.872 84.4085 35.2802 C 86.4607 49.4638 66.7463 60.2186 55.601 59.0296 C 44.4557 57.8406 44.4995 45.3967 48.5522 39.6066" stroke-linecap="round" />
</g>
<g transform="matrix(10.29 0 0 10.29 540 540)"  >
<path style="stroke: rgb(37,120,110); stroke-width: 1; stroke-dasharray: none; stroke-linecap: butt; stroke-dashoffset: 0; stroke-linejoin: miter; stroke-miterlimit: 4; fill: none; fill-rule: nonzero; opacity: 1;"  transform=" translate(-52.46, -40.61)" d="M 16.3683 77.0767 C -6.06733 56.2321 5.98751 34.0868 20.8567 22.5984 C 43.1054 5.40842 83.416 -6.17889 96.3017 17.6419 C 109.187 41.4626 94.7583 65.3167 59.0899 74.2886 C 32.0749 81.0839 20.251 61.1925 23.3708 47.3168 C 26.8726 31.7417 45.1627 21.053 59.3688 18.4652 C 75.5817 15.5118 82.7579 23.872 84.4085 35.2802 C 86.4607 49.4638 66.7463 60.2186 55.601 59.0296 C 44.4557 57.8406 44.4995 45.3967 48.5522 39.6066" stroke-linecap="round" />
</g>
<g transform="matrix(10.29 0 0 10.29 540 540)"  >
<path style="stroke: rgb(37,120,110); stroke-width: 1; stroke-dasharray: none; stroke-linecap: butt; stroke-dashoffset: 0; stroke-linejoin: miter; stroke-miterlimit: 4; fill: none; fill-rule: nonzero; opacity: 1;"  transform=" translate(-52.46, -40.61)" d="M 16.3683 77.0767 C -6.06733 56.2321 5.98751 34.0868 20.8567 22.5984 C 43.1054 5.40842 83.416 -6.17889 96.3017 17.6419 C 109.187 41.4626 94.7583 65.3167 59.0899 74.2886 C 32.0749 81.0839 20.251 61.1925 23.3708 47.3168 C 26.8726 31.7417 45.1627 21.053 59.3688 18.4652 C 75.5817 15.5118 82.7579 23.872 84.4085 35.2802 C 86.4607 49.4638 66.7463 60.2186 55.601 59.0296 C 44.4557 57.8406 44.4995 45.3967 48.5522 39.6066" stroke-linecap="round" />
</g>
<g transform="matrix(10.29 0 0 10.29 540 540)"  >
<path style="stroke: rgb(37,120,110); stroke-width: 1; stroke-dasharray: none; stroke-linecap: butt; stroke-dashoffset: 0; stroke-linejoin: miter; stroke-miterlimit: 4; fill: none; fill-rule: nonzero; opacity: 1;"  transform=" translate(-52.46, -40.61)" d="M 16.3683 77.0767 C -6.06733 56.2321 5.98751 34.0868 20.8567 22.5984 C 43.1054 5.40842 83.416 -6.17889 96.3017 17.6419 C 109.187 41.4626 94.7583 65.3167 59.0899 74.2886 C 32.0749 81.0839 20.251 61.1925 23.3708 47.3168 C 26.8726 31.7417 45.1627 21.053 59.3688 18.4652 C 75.5817 15.5118 82.7579 23.872 84.4085 35.2802 C 86.4607 49.4638 66.7463 60.2186 55.601 59.0296 C 44.4557 57.8406 44.4995 45.3967 48.5522 39.6066" stroke-linecap="round" />
</g>
<g transform="matrix(10.29 0 0 10.29 540 540)"  >
<path style="stroke: rgb(37,120,110); stroke-width: 1; stroke-dasharray: none; stroke-linecap: butt; stroke-dashoffset: 0; stroke-linejoin: miter; stroke-miterlimit: 4; fill: none; fill-rule: nonzero; opacity: 1;"  transform=" translate(-52.46, -40.61)" d="M 16.3683 77.0767 C -6.06733 56.2321 5.98751 34.0868 20.8567 22.5984 C 43.1054 5.40842 83.416 -6.17889 96.3017 17.6419 C 109.187 41.4626 94.7583 65.3167 59.0899 74.2886 C 32.0749 81.0839 20.251 61.1925 23.3708 47.3168 C 26.8726 31.7417 45.1627 21.053 59.3688 18.4652 C 75.5817 15.5118 82.7579 23.872 84.4085 35.2802 C 86.4607 49.4638 66.7463 60.2186 55.601 59.0296 C 44.4557 57.8406 44.4995 45.3967 48.5522 39.6066" stroke-linecap="round" />
</g>
<g transform="matrix(10.29 0 0 10.29 540 540)"  >
<path style="stroke: rgb(37,120,110); stroke-width: 1; stroke-dasharray: none; stroke-linecap: butt; stroke-dashoffset: 0; stroke-linejoin: miter; stroke-miterlimit: 4; fill: none; fill-rule: nonzero; opacity: 1;"  transform=" translate(-52.46, -40.61)" d="M 16.3683 77.0767 C -6.06733 56.2321 5.98751 34.0868 20.8567 22.5984 C 43.1054 5.40842 83.416 -6.17889 96.3017 17.6419 C 109.187 41.4626 94.7583 65.3167 59.0899 74.2886 C 32.0749 81.0839 20.251 61.1925 23.3708 47.3168 C 26.8726 31.7417 45.1627 21.053 59.3688 18.4652 C 75.5817 15.5118 82.7579 23.872 84.4085 35.2802 C 86.4607 49.4638 66.7463 60.2186 55.601 59.0296 C 44.4557 57.8406 44.4995 45.3967 48.5522 39.6066" stroke-linecap="round" />
</g>
<g transform="matrix(10.29 0 0 10.29 540 540)"  >
<path style="stroke: rgb(37,120,110); stroke-width: 1; stroke-dasharray: none; stroke-linecap: butt; stroke-dashoffset: 0; stroke-linejoin: miter; stroke-miterlimit: 4; fill: none; fill-rule: nonzero; opacity: 1;"  transform=" translate(-52.46, -40.61)" d="M 16.3683 77.0767 C -6.06733 56.2321 5.98751 34.0868 20.8567 22.5984 C 43.1054 5.40842 83.416 -6.17889 96.3017 17.6419 C 109.187 41.4626 94.7583 65.3167 59.0899 74.2886 C 32.0749 81.0839 20.251 61.1925 23.3708 47.3168 C 26.8726 31.7417 45.1627 21.053 59.3688 18.4652 C 75.5817 15.5118 82.7579 23.872 84.4085 35.2802 C 86.4607 49.4638 66.7463 60.2186 55.601 59.0296 C 44.4557 57.8406 44.4995 45.3967 48.5522 39.6066" stroke-linecap="round" />
</g>
<g transform="matrix(10.29 0 0 10.29 540 540)"  >
<path style="stroke: rgb(37,120,110); stroke-width: 6; stroke-dasharray: none; stroke-linecap: butt; stroke-dashoffset: 0; stroke-linejoin: miter; stroke-miterlimit: 4; fill: none; fill-rule: nonzero; opacity: 1;"  transform=" translate(-52.46, -40.61)" d="M 16.3683 77.0767 C -6.06733 56.2321 5.98751 34.0868 20.8567 22.5984 C 43.1054 5.40842 83.416 -6.17889 96.3017 17.6419 C 109.187 41.4626 94.7583 65.3167 59.0899 74.2886 C 32.0749 81.0839 20.251 61.1925 23.3708 47.3168 C 26.8726 31.7417 45.1627 21.053 59.3688 18.4652 C 75.5817 15.5118 82.7579 23.872 84.4085 35.2802 C 86.4607 49.4638 66.7463 60.2186 55.601 59.0296 C 44.4557 57.8406 44.4995 45.3967 48.5522 39.6066" stroke-linecap="round" />
</g>
</svg>