<svg xmlns="http://www.w3.org/2000/svg" width="83" height="85" fill="none"><g fill="#307B74"><path d="M81.611 27.586c-.254-1.035-.78-1.829-1.48-2.237a2.23 2.23 0 0 0-1.775-.211c-.948.27-2.011 1.11-1.69 3.575.25 1.929.458 3.9.66 5.803.085.813.172 1.625.26 2.437-.322 5.404-.678 10.276-1.77 15.127-1.428 6.337-4.377 12.31-8.766 17.753-3.559 4.415-8.107 7.15-13.905 8.364a45.778 45.778 0 0 1-14.577.571c-3.95-.452-8.58-1.171-12.98-3.076-5.093-2.204-8.697-4.807-11.345-8.193a44.74 44.74 0 0 1-8.211-17.032 32.748 32.748 0 0 1-.795-12.066c.745-5.94 2.762-11.778 6.348-18.372a20.18 20.18 0 0 1 5.02-6.048c4.996-4.062 9.943-6.852 15.125-8.53 3.685-1.192 7.752-1.567 12.438-1.145 3.114.28 6.14 1.213 9.067 2.115.656.202 1.312.404 1.97.6l.302.092c.56.191 1.138.325 1.724.4.39.034 1.198-.183 1.352-.645a1.888 1.888 0 0 0-.261-1.566 3.765 3.765 0 0 0-1.492-1.113c-1.957-.815-3.726-1.54-5.571-2.157a33.697 33.697 0 0 0-10.9-1.75 34.722 34.722 0 0 0-16.934 4.574 125.323 125.323 0 0 0-5.152 3.037C13.68 10.76 10.343 14.12 8.07 18.164 5.343 23.015 3.46 27.486 2.31 31.83.946 36.983.457 40.998.721 44.852c.459 6.672 2.575 13.277 6.474 20.194a35.661 35.661 0 0 0 5.095 7.062c4.14 4.39 9.385 7.496 16.032 9.494A54.625 54.625 0 0 0 50.954 83.5c8.947-1.119 15.836-5.01 21.057-11.896 4.178-5.51 6.946-11.024 8.462-16.856 1.727-6.649 2.368-13.89 1.96-22.139a26.09 26.09 0 0 0-.822-5.023Z"/><path d="M47.877 15.92c.366.039.733.078 1.1.112.33.03 1.207.113 1.5-.744a1.347 1.347 0 0 0-.71-1.716 7.803 7.803 0 0 0-1.83-.658 27.355 27.355 0 0 0-8.831-.407c-5.497.649-10.111 2.078-14.109 4.369-5.31 3.044-8.596 6.93-10.044 11.882-.222.76-.52 1.522-.783 2.196a31.175 31.175 0 0 0-1.626 17.805c.853 4.217 1.906 7.622 4.272 10.531 5.43 6.68 11.607 10.448 18.881 11.521 1.568.231 3.18.309 4.735.383.709.035 1.441.07 2.158.12h.029a36.358 36.358 0 0 0 16.121-4.148 13.603 13.603 0 0 0 3.267-2.289c3.072-3.031 5.007-5.905 6.09-9.043.22-.633.508-1.262.787-1.87.086-.186.172-.372.255-.56 2.503-5.568 2.48-11.657-.068-18.613a4.433 4.433 0 0 0-.978-1.564 2.318 2.318 0 0 0-2.257-.715 2.22 2.22 0 0 0-1.51 1.742c-.171.73-.045 1.543.067 2.26l.025.161c.13.846.288 1.7.44 2.527.258 1.403.526 2.854.662 4.286a14.999 14.999 0 0 1-.92 6.978 63.315 63.315 0 0 1-2.583 5.867c-1.586 3.07-3.323 5.082-5.467 6.325-1.679.975-3.574 1.667-5.407 2.337l-.723.265c-3.24 1.195-6.727 1.198-10.119 1.2h-.026c-5.216 0-9.188-1.158-12.499-3.641-.54-.405-1.106-.784-1.655-1.15-.607-.407-1.235-.826-1.817-1.276-3.159-2.44-5.223-5.189-6.31-8.405-1.278-3.783-2.617-8.8-1.612-14.073.33-1.58.74-3.14 1.23-4.678.297-.992.604-2.017.864-3.038 1.06-4.172 3.628-7.403 7.852-9.878 5.698-3.339 12.069-4.89 18.918-4.62.875.034 1.767.128 2.63.22Z"/><path d="M33.062 30.914a21.407 21.407 0 0 1 4.378-1.91c1.574-.47 3.23-.788 4.83-1.095.413-.08.826-.159 1.237-.241.524-.104 1.317-.262 1.333-1.192.013-.73-.47-1.22-1.29-1.31a8.965 8.965 0 0 0-1.299-.052c-2.91.11-5.839.79-9.213 2.14a12.28 12.28 0 0 0-6.688 6.203c-2.44 5.026-2.584 10.401-.428 15.977.606 1.57 1.52 3.573 3.207 5.15 3.782 3.536 8.382 5.328 13.675 5.328.251 0 .503.007.755.015.232.007.467.015.703.015.282.002.564-.013.845-.046 3.688-.457 6.576-1.7 8.828-3.796 4.23-3.938 6.142-9.211 5.686-15.674-.064-.911-.51-1.812-.904-2.605-.355-.717-1.169-1.264-1.98-.864-.549.338-.95.87-1.123 1.493a4.22 4.22 0 0 0-.107 1.327c.006.217.01.422 0 .623-.027.493-.04.995-.051 1.481a21.135 21.135 0 0 1-.259 3.335c-1.085 5.794-4.337 9.197-9.664 10.113-3.753.645-7.446-.057-10.975-2.088-1.36-.782-2.744-1.708-3.645-3.167-2.634-4.265-3.285-8.806-1.935-13.497.762-2.655 2.137-4.56 4.084-5.663Z"/><path d="M68.932 11.208a52.4 52.4 0 0 1 .141-.714c.168-.744.287-1.498.36-2.258.099-1.343-.52-1.82-1.553-2.155a2.368 2.368 0 0 0-2.356.454 2404.208 2404.208 0 0 0-8.762 7.386c-1.04.882-1.407 2.01-1.147 3.55.167.991.27 2.014.37 3.003.076.752.154 1.53.26 2.292.083.6-.086 1.007-.621 1.5l-.24.22c-1.478 1.361-3.006 2.768-4.442 4.224-2.558 2.59-5.136 5.245-7.633 7.813a3598.9 3598.9 0 0 1-3.558 3.657c-.848.87-.67 1.54-.37 1.95a1.215 1.215 0 0 0 1 .536c.404-.02.792-.164 1.11-.414a14.942 14.942 0 0 0 1.576-1.354c2.859-2.71 5.716-5.422 8.57-8.136l4.641-4.409c.468-.443.801-.657 1.394-.632 2.532.076 5.106.074 7.595.072.706-.002 1.413-.002 2.12 0h.005a2.88 2.88 0 0 0 2.293-1.04 513.092 513.092 0 0 1 6.062-6.796c.96-1.062 1.792-2.169 1.42-4.027-.337-1.67-.562-2.409-2.433-2.42-.977 0-1.967.051-2.925.106a84.97 84.97 0 0 1-1.626.081c-.438.016-.872.013-1.376.009l-.383-.003.118-.566c.139-.67.27-1.298.39-1.929Zm4.519 6.14.076.006-5.238 6.657h-8.788l-.081-.272a4.637 4.637 0 0 1-.245-1.126c-.039-1.016-.037-2.054-.035-3.058 0-.602.002-1.204-.006-1.805-.007-.594.08-1.069.522-1.452 1.655-1.435 3.304-2.878 5.055-4.41l1.478-1.292c-.015.23-.028.396-.052.557-.071.455-.15.91-.23 1.364-.15.864-.305 1.758-.4 2.648-.082.786.027 1.32.345 1.681.319.361.821.533 1.592.547 1.127.021 2.27-.011 3.376-.041.6-.017 1.2-.033 1.799-.041.245-.001.49.015.832.04v-.002Z"/></g></svg>