<svg xmlns="http://www.w3.org/2000/svg" width="82" height="76" fill="none"><path fill="#25786E" d="M81.725 32.644c-.142-8.355-3.536-15.486-10.096-21.193-5.26-4.582-11.72-7.919-19.195-9.922C49.541.756 46.484.094 43.287.094a20.991 20.991 0 0 0-4.993.586c-7.505 1.838-13.008 3.96-17.84 6.892-7.226 4.383-11.814 8.737-14.877 14.121C1.437 28.96-.07 36.461.967 44.625c.614 4.806 2.377 9.548 5.552 14.923 2.502 4.235 5.711 7.273 9.813 9.286 2.156 1.061 4.277 2.088 6.475 3.024 5.817 2.479 11.784 3.482 19.35 3.252.473-.064 1.05-.134 1.708-.213 1.754-.21 4.157-.496 6.495-.919 6.533-1.178 11.885-3.176 16.36-6.106a20.866 20.866 0 0 0 4.06-3.413 39.325 39.325 0 0 0 5.652-8.207c3.708-7.084 5.439-14.807 5.293-23.608ZM14.272 16.009c5.642-5.121 11.768-8.682 18.726-10.884l1.206-.382-.915.869c-4.278 4.077-7.05 9.157-8.99 13.126l-.078.167-.188-.003c-2.391-.023-7.648-1.336-9.699-2.42l-.367-.196.305-.277ZM3.855 37.238c.677-6.798 3.192-12.832 7.686-18.443l.123-.152 11.207 3.31-.108.292a70.661 70.661 0 0 0-3.758 14.81l-.036.247-15.147.263.033-.327Zm5.471 21.383-.135-.207c-3.743-5.813-5.53-11.724-5.46-18.07l.003-.289h14.628l.337 14.58-9.373 3.986Zm13.04 9.729c-4.133-1.82-8.407-3.701-11.477-7.513l-.216-.268.302-.166c2.743-1.537 5.574-2.432 7.98-3.106l.32-.088.049.324c.701 4.357 1.9 7.71 3.773 10.551l.545.826-1.275-.56Zm15.388 3.52-.261.02c-.486.04-.965.061-1.44.061a28.203 28.203 0 0 1-5.842-.735 1.46 1.46 0 0 1-.836-.665l-.422-.685c-1.114-1.811-2.236-2.755-3.345-5.556-1.105-2.79-1.992-5.454-2.28-7.897l-.028-.26.255-.057a82.706 82.706 0 0 1 14.478-1.989l.32-.017-.6 17.78Zm.733-20.687-15.545 2.229-.041-.289c-.643-4.474-.543-9.03-.361-12.896l.011-.277h16.403l-.467 11.233Zm.558-14.223H22.962l.029-.318c.413-4.409 1.475-8.973 3.244-13.954l.076-.213 12.734 1.012V36.96Zm.093-16.457-11.69-.709.167-.382c3.05-7.01 6.926-12.018 12.201-15.752l.508-.358-1.185 17.201ZM52.971 5.694C57.75 7.1 63.891 9.316 69.018 14.04l.308.283-.756.385c-2.424 1.234-4.711 2.398-7.475 2.83l-.194.031-.103-.17c-.405-.66-.8-1.327-1.194-1.995-1.94-3.26-3.943-6.635-6.909-9.21l-1.012-.878 1.288.38Zm-9.954.604c.035-.726.07-1.458.103-2.19l.02-.423.39.166c5.788 2.476 9.922 6.85 13.404 14.185l.162.34-1.364.255c-4.304.808-8.37 1.572-12.705 1.712l-.297.008-.005-.294c-.136-4.618.072-9.058.292-13.76v.001Zm-.343 17.291 15.903-2.397.088.204c1.89 4.246 2.781 9 2.725 14.531v.28l-18.717.697.001-13.315Zm-.179 16.244 18.85-.592-.01.312a76.831 76.831 0 0 1-1.398 12.407l-.05.253-17.84-1.271.448-11.109Zm6.988 31.141c-1.936.312-3.878.575-5.931.852l-2.145.291-.35.05.79-18.184.27-.008c4.958-.187 10.068.195 16.567 1.236l.355.057-.127.332c-.132.35-.264.697-.393 1.045-1.142 3.047-2.535 5.742-3.972 8.536-1.58 3.07-4.535 5.708-5.064 5.793Zm21.502-12.228c-2.873 5.512-7.825 7.964-12.744 9.796l-.813.303.46-.732c2.154-3.406 3.56-7.119 5.046-11.05l.394-1.04 7.818 2.414-.161.309ZM77.97 38.96c-.52 6.218-2.027 11.426-4.741 16.39l-.109.201-8.845-2.303 1.517-14.195 12.204-.42-.026.327Zm.155-3.64-.032.248-12.325.432-.035-.262c-.106-.795-.2-1.599-.293-2.377-.205-1.762-.42-3.579-.786-5.323-.364-1.717-.877-3.37-1.423-5.12-.232-.753-.475-1.529-.702-2.308l-.073-.25 9.104-3.754.134.1c4.13 3.05 7.255 12.1 6.43 18.614h.001Z"/></svg>