<svg width="137" height="96" viewBox="0 0 137 96" fill="none" xmlns="http://www.w3.org/2000/svg">
<path id="Vector" d="M30.2112 82.8726C36.5419 82.4513 42.8164 81.3976 48.944 79.7265C57.3119 77.4835 65.334 74.0733 72.7818 69.5932C76.7104 67.2712 80.4381 64.6144 83.9247 61.6515C87.305 61.5932 90.6752 61.2602 94.0033 60.6559C100.254 59.4768 106.292 57.3351 111.907 54.3046C117.106 51.5092 121.837 47.896 125.926 43.5987C127.792 41.5768 129.493 39.4049 131.015 37.1043C132.505 34.9257 133.73 32.5707 134.66 30.0912C136.458 25.3 137.046 20.1144 135.39 15.5191C134.578 13.3005 133.3 11.289 131.643 9.62501C130.076 8.11597 128.31 6.83691 126.394 5.8249C123.134 4.14056 119.687 2.85801 116.127 2.00451C113.462 1.34259 110.747 0.913572 108.01 0.722098C106.304 0.589805 104.592 0.571502 102.883 0.667338C101.714 0.737772 101.104 0.839787 101.114 0.920175C101.125 1.00056 103.588 1.01475 107.959 1.59988C110.613 1.95708 113.237 2.51234 115.811 3.26116C119.191 4.21669 122.451 5.56739 125.526 7.28625C127.238 8.26376 128.81 9.4779 130.195 10.894C131.598 12.3781 132.658 14.1611 133.299 16.1135C134.635 20.0974 134.028 24.7702 132.239 29.1841C131.314 31.4784 130.12 33.6506 128.683 35.6536C127.178 37.8005 125.505 39.8208 123.681 41.695C119.738 45.6869 115.202 49.025 110.241 51.5875C104.896 54.3779 99.1687 56.3331 93.2508 57.3873C91.566 57.6697 89.856 57.8819 88.1357 58.0138C88.2439 57.9175 88.3545 57.8087 88.4751 57.7149C89.4975 56.7143 90.4658 55.658 91.3758 54.5508C93.2899 52.3171 94.9203 49.8477 96.2287 47.2005C96.9576 45.7275 97.4295 44.1371 97.6236 42.5C97.7654 40.8232 97.6219 39.1342 97.1991 37.507C96.6954 35.7327 95.7919 34.1021 94.5603 32.7447C93.2588 31.3606 91.6754 30.2828 89.9209 29.5867C86.5446 28.3066 82.8969 27.9496 79.3424 28.5516C74.2308 29.3209 69.4386 31.548 65.5217 34.9744C64.2598 36.1006 63.1135 37.3539 62.1002 38.7151C59.9781 41.4615 58.7524 44.8131 58.5943 48.3019C58.5338 50.2153 58.9859 52.1094 59.9023 53.7819C60.8899 55.4792 62.273 56.9035 63.9296 57.9293C67.0408 59.7339 70.4889 60.8565 74.0524 61.2252C75.018 61.415 75.9929 61.4892 76.9777 61.5783C74.8007 63.2088 72.5373 64.7166 70.1979 66.095C63.1078 70.3527 55.4879 73.6239 47.5421 75.821C41.7102 77.4505 35.7436 78.5328 29.7173 79.0542C23.0385 79.6057 16.3262 79.5962 9.6489 79.0259C7.72601 78.8046 6.43693 78.6947 5.56634 78.6803C9.24672 73.9759 12.4815 68.9285 15.2277 63.6053C17.4258 59.2063 18.3398 56.2915 17.8809 56.0707C16.8913 55.6019 10.9399 66.0267 1.6841 77.5514L1.21057 78.1504C1.00541 78.4227 0.829033 78.7163 0.684378 79.0262C0.422949 79.6179 0.39179 80.2883 0.597209 80.9024C0.934453 81.6978 1.53175 82.3503 2.28795 82.7494L3.42302 83.534L5.58372 85.0034L9.69867 87.7448C12.3382 89.465 14.7242 90.9656 16.7499 92.1995C20.806 94.6422 23.4331 95.9552 23.7226 95.5812C24.0121 95.2072 21.9124 93.2145 18.2487 90.2614C16.4095 88.79 14.1804 87.0721 11.6734 85.1952L7.69581 82.2718L6.57032 81.4369C7.31313 81.5829 8.19015 81.8337 9.31195 82.0803C16.2242 83.2478 23.2479 83.5812 30.2371 83.0736L30.2112 82.8726ZM74.5677 57.4355C71.5894 57.1259 68.7059 56.1945 66.0979 54.6996C65.0098 54.0663 64.114 53.141 63.5086 52.0247C62.9032 50.9085 62.6115 49.6445 62.6653 48.371C62.8398 45.6561 63.831 43.0613 65.5046 40.9382C66.3648 39.8104 67.3324 38.7716 68.3934 37.8371C69.4913 36.9112 70.667 36.085 71.9069 35.368C74.4308 33.9386 77.1922 32.9943 80.0527 32.5823C82.7768 32.1236 85.5715 32.394 88.1616 33.3669C89.2677 33.7783 90.2624 34.45 91.0644 35.327C91.8663 36.2041 92.4527 37.2616 92.7757 38.4132C93.0497 39.5757 93.1424 40.7747 93.0502 41.9665C92.8788 43.1365 92.52 44.2701 91.9881 45.3223C90.8112 47.643 89.3598 49.8088 87.6662 51.7716C86.8422 52.7597 85.9682 53.7036 85.0477 54.5994L82.1485 57.2154C81.7943 57.5244 81.4326 57.8058 81.066 58.1124C78.8756 58.0159 76.6922 57.7958 74.5258 57.4533" fill="#25786E"/>
</svg>
