<svg width="130" height="79" viewBox="0 0 130 79" fill="none" xmlns="http://www.w3.org/2000/svg">
<path id="Vector" d="M127.989 5.8211C126.518 10.701 124.418 15.366 121.741 19.697C120.085 22.4981 118.123 25.5307 115.934 28.6942C113.61 32.0937 111.054 35.327 108.285 38.3707C106.788 40.004 105.186 41.5365 103.489 42.9583C101.745 44.4556 99.8701 45.7921 97.8877 46.9516C95.87 48.1631 93.7167 49.1302 91.4728 49.8324C89.2161 50.5744 86.8696 51.0044 84.4976 51.1105L84.1046 51.1174C84.1396 50.9871 84.2012 50.8552 84.2464 50.719C85.931 45.5623 85.9044 39.9951 84.1709 34.8549C83.2637 32.2574 81.8401 29.8728 79.9868 27.8463C78.0469 25.7222 75.5979 24.1335 72.8735 23.2318C71.4515 22.7126 69.9562 22.4246 68.444 22.3785C66.7496 22.3144 65.0631 22.6394 63.5125 23.329C62.0237 24.0365 60.7003 25.052 59.6287 26.309C58.5571 27.5661 57.7615 29.0364 57.2938 30.6238C56.4481 33.5 56.6317 36.5833 57.8126 39.3375C58.8796 41.866 60.4317 44.1583 62.3803 46.0833C64.28 47.993 66.4614 49.5964 68.8477 50.8369C71.8292 52.3785 75.0502 53.3979 78.3724 53.8516C77.9902 54.5097 77.5649 55.1416 77.0994 55.743C74.3782 59.3113 70.9022 62.2269 66.9229 64.2789C63.2252 66.2177 59.257 67.5826 55.1531 68.3274C51.5727 68.9963 47.9244 69.2235 44.2892 69.0039C41.2041 68.7457 38.1485 68.2084 35.1594 67.3986C30.4702 66.1801 25.9279 64.4485 21.6141 62.2347C18.7086 60.7731 15.9176 59.092 13.2649 57.206C11.1461 55.6781 9.66391 54.4979 8.5356 53.5536C7.54303 52.751 6.91025 52.1946 6.40291 51.7859L7.37016 51.8738C10.1277 52.1245 12.6259 52.3048 14.7369 52.4061C18.9529 52.5985 21.6552 52.537 21.7113 52.0367C21.7675 51.5364 19.3136 50.835 15.2168 50.0372C13.1625 49.6279 10.7196 49.2092 7.98967 48.7912L6.95453 48.6325C6.50977 48.5593 6.05959 48.5248 5.60894 48.5292C5.31971 48.5369 5.0317 48.5698 4.74814 48.6275C4.38736 48.7003 4.03839 48.8232 3.71131 48.9927C3.03773 49.3418 2.4925 49.8978 2.15498 50.58C1.77937 51.4753 1.57499 52.4337 1.55252 53.4051L1.31513 55.6477C0.226958 68.1109 0.0942436 78.2468 1.05688 78.2548C2.01953 78.2628 3.69639 68.1704 4.79485 55.7012L4.92331 54.0582C5.34211 54.6189 5.79726 55.1512 6.28578 55.6517C7.7115 57.1738 9.25014 58.5849 10.8884 59.8727C13.5633 62.0205 16.4291 63.9162 19.4496 65.5358C23.95 67.998 28.7232 69.9189 33.6705 71.2588C36.9226 72.1536 40.2508 72.7414 43.6116 73.0145C47.6272 73.2804 51.6601 73.0397 55.6162 72.2982C60.1903 71.4698 64.611 69.9412 68.7242 67.7655C73.3195 65.376 77.3234 61.981 80.4413 57.8303C81.3447 56.638 82.1256 55.3569 82.7723 54.0065C83.3036 54.0022 83.835 53.9979 84.3589 53.9567C87.0157 53.7992 89.6393 53.283 92.1592 52.422C94.6057 51.5969 96.9483 50.4881 99.1397 49.118C101.243 47.8304 103.225 46.3534 105.062 44.7051C106.805 43.1864 108.446 41.5534 109.974 39.8168C112.746 36.6439 115.283 33.2697 117.562 29.7216C119.708 26.4359 121.582 23.33 123.185 20.4038C125.754 15.8972 127.646 11.034 128.801 5.97152C129.088 4.62479 129.272 3.25785 129.351 1.88276C129.377 0.945937 129.377 0.491612 129.29 0.45927C129.204 0.426927 128.93 2.41507 127.969 5.83299L127.989 5.8211ZM80.2227 49.7137C80.1015 50.1003 79.9479 50.478 79.7943 50.8558C76.5749 50.452 73.4572 49.4543 70.598 47.9128C68.5126 46.7821 66.6115 45.3376 64.9604 43.6292C63.3246 41.9679 62.0313 39.9982 61.1546 37.8331C60.3104 35.7802 60.2049 33.4955 60.8562 31.3727C61.1637 30.3264 61.6871 29.3569 62.3921 28.5275C63.0971 27.6981 63.968 27.0274 64.9481 26.5589C67.0147 25.8112 69.2842 25.8636 71.3145 26.706C73.4657 27.4485 75.392 28.7328 76.9095 30.4362C78.4028 32.1386 79.5391 34.1265 80.2503 36.2809C80.9771 38.4399 81.3466 40.7042 81.3441 42.9835C81.3563 45.2693 80.9842 47.5407 80.2433 49.7018" fill="#307B74"/>
</svg>
