<svg width="150" height="108" viewBox="0 0 150 108" fill="none" xmlns="http://www.w3.org/2000/svg">
<path id="Vector" d="M70.2234 98.5573C65.3812 101.097 60.0694 102.615 54.6167 103.019L52.8265 103.161L51.1 103.21L47.7581 103.216L44.5986 103.046C43.5933 103.022 42.5902 102.94 41.5943 102.801C39.6361 102.563 37.7918 102.374 36.0825 102.011L33.5438 101.538L31.1742 100.962C26.2032 99.7366 21.3455 98.0897 16.6539 96.0398C13.8203 94.8106 11.0604 93.4182 8.38802 91.8695C7.03792 91.1101 5.7357 90.2685 4.4887 89.3496L4.59665 89.6426C5.16028 91.0271 5.76704 92.3815 6.35033 93.6563L9.49812 100.477C11.2176 104.419 12.1366 106.98 11.6945 107.288C11.2524 107.596 9.46895 105.54 7.09317 101.943C5.86215 100.175 4.56018 97.96 3.1901 95.4401C2.50131 94.1748 1.80733 92.8331 1.15457 91.3666C0.994079 90.9981 0.833595 90.6296 0.687159 90.2353L0.456244 89.6277L0.344056 89.3056L0.210735 88.8381C0.0766414 88.4611 0.0201533 88.0608 0.0446686 87.6613C0.0691863 87.2619 0.174187 86.8716 0.353389 86.5137C0.795788 85.7682 1.44793 85.1695 2.22841 84.7922L2.48717 84.6121L2.65968 84.492L2.98315 84.2668C3.19879 84.1166 3.43789 84.0462 3.66527 83.936C4.11675 83.7337 4.55418 83.5572 5.00239 83.3733C5.86973 83.0096 6.72724 82.7007 7.53411 82.4111C9.21679 81.816 10.8315 81.2841 12.3707 80.8049C15.4567 79.8571 18.2549 79.0936 20.6015 78.5325C25.3089 77.3844 28.2783 76.9819 28.3718 77.4611C28.4652 77.9403 25.6809 79.2064 21.1519 80.8866C18.8766 81.7343 16.1747 82.7509 13.1722 83.8646C11.6855 84.4194 10.1267 85.0084 8.50635 85.6242C7.7037 85.9428 6.90104 86.2615 6.09512 86.5985L5.5316 86.8467C6.45406 87.229 7.87085 87.9075 10.2026 88.9575C12.229 89.8678 14.8961 91.1006 18.5142 92.5037C23.1056 94.3069 27.8265 95.7614 32.6367 96.8548L34.935 97.5118L37.3631 97.9185C38.995 98.2391 40.7586 98.404 42.6244 98.5778C43.5578 98.6984 44.4973 98.7659 45.4383 98.7798L48.4075 98.9058L51.5322 98.7955C52.0639 98.7775 52.5956 98.7595 53.1133 98.7673C53.631 98.7751 54.1974 98.6689 54.7464 98.6068C59.4877 98.2678 64.1103 96.9668 68.3324 94.7833C70.5476 93.5879 72.4882 91.9424 74.0298 89.9526C75.5346 87.9566 76.4706 85.5901 76.7381 83.1047C73.5845 82.546 70.5069 81.621 67.5678 80.3484C64.0114 78.8787 60.7954 76.6932 58.1195 73.9278C56.8117 72.4821 55.7744 70.813 55.0572 69.0003C54.2015 66.9578 54.0406 64.6907 54.5992 62.5479C54.9812 61.198 55.7285 59.9798 56.7587 59.0276C57.8265 58.0453 59.1448 57.3768 60.5683 57.0958C62.7878 56.7175 65.0701 57.0504 67.0891 58.0467C70.2308 59.6486 72.9722 61.9362 75.1106 64.7403C77.205 67.255 78.8705 70.0978 80.0399 73.1544C80.8015 75.1811 81.2725 77.3053 81.4389 79.4639C84.7087 79.7591 88.0046 79.5241 91.1994 78.7679C93.0536 78.2878 94.8497 77.6063 96.5558 76.7357C98.2411 75.8506 99.8094 74.7587 101.224 73.4855C104.051 70.8747 106.28 67.6847 107.76 64.1333C108.497 62.4317 109.029 60.6482 109.344 58.8206C109.498 57.9335 109.602 57.0382 109.654 56.1393C109.677 55.2521 109.647 54.3643 109.564 53.4807C109.492 52.5616 109.349 51.6495 109.138 50.7523C106.25 50.262 103.4 49.5717 100.608 48.6865C96.9932 47.5868 93.547 45.9945 90.3665 43.9546C88.6536 42.8838 87.1965 41.4501 86.0981 39.7548C85.4018 38.645 85.1547 37.3115 85.407 36.0259C85.4895 35.6544 85.6143 35.2936 85.7789 34.9505C85.9476 34.641 86.1163 34.3315 86.3 34.0435C86.4963 33.7336 86.7251 33.4456 86.9825 33.1842C87.2234 32.894 87.5042 32.6393 87.8164 32.4276C88.9399 31.5607 90.2927 31.0419 91.7077 30.9351C92.3147 30.8652 92.9269 30.8517 93.5364 30.8946C94.0986 30.9439 94.6575 31.0251 95.2105 31.1379C97.2663 31.5951 99.2319 32.3904 101.027 33.4916C104.429 35.5125 107.334 38.2711 109.528 41.564C110.643 43.2032 111.553 44.9731 112.237 46.834C112.417 47.3005 112.576 47.782 112.725 48.271C116.076 48.757 119.466 48.9218 122.848 48.7631C126.283 48.6234 129.68 47.9891 132.934 46.8797C136.067 45.84 138.938 44.1362 141.351 41.8848C143.577 39.7552 145.307 37.1623 146.42 34.2896C147.446 31.7119 147.915 28.9466 147.798 26.1748C147.421 21.356 145.161 16.8795 141.508 13.7136C139.965 12.2497 138.285 10.9374 136.491 9.79493C134.876 8.7281 133.201 7.75672 131.472 6.88575C128.662 5.47454 125.765 4.24025 122.801 3.19009C117.878 1.43064 115.015 0.766748 115.058 0.576356C115.788 0.546387 116.518 0.632542 117.221 0.83161C118.607 1.09886 120.632 1.54643 123.187 2.29671C126.261 3.19806 129.269 4.31385 132.187 5.63588C133.989 6.448 135.74 7.3668 137.432 8.38741C139.336 9.5205 141.13 10.8276 142.792 12.2919C144.631 13.9103 146.211 15.8007 147.478 17.8974C148.891 20.2438 149.729 22.8902 149.927 25.6217C150.081 28.6995 149.581 31.775 148.461 34.6458C147.262 37.9194 145.355 40.8874 142.874 43.3374C140.17 45.9395 136.939 47.9321 133.4 49.1809C129.874 50.4383 126.187 51.1887 122.45 51.4097C119.378 51.5923 116.297 51.5264 113.236 51.2127C113.307 51.6595 113.36 52.1031 113.402 52.5542C113.671 54.6873 113.634 56.8481 113.29 58.9707C112.943 61.1146 112.337 63.2085 111.484 65.2063C109.756 69.3861 107.148 73.1452 103.838 76.2281C102.102 77.7888 100.179 79.1277 98.1129 80.2139C96.0844 81.267 93.9429 82.0865 91.7296 82.6568C88.2817 83.5077 84.7238 83.8252 81.1797 83.5983C80.712 86.7206 79.4655 89.6748 77.5553 92.1884C75.5436 94.7935 73.0068 96.9468 70.1095 98.5086L70.2234 98.5573ZM107.991 47.4043C107.475 46.1438 106.838 44.9362 106.089 43.7981C104.18 40.8701 101.643 38.404 98.6621 36.5787C97.2061 35.6662 95.6107 34.9979 93.9391 34.6002C93.5433 34.4916 93.1387 34.4851 92.7363 34.4131C92.3491 34.3889 91.9607 34.3919 91.5739 34.4219C90.9319 34.4432 90.3114 34.6577 89.7932 35.0373C89.661 35.0892 89.5428 35.1715 89.4482 35.2775C89.3404 35.3525 89.2218 35.4351 89.1707 35.6147L89.0147 36.0115C88.9623 36.1054 88.925 36.207 88.9042 36.3125C88.8241 36.8594 88.9496 37.4165 89.2564 37.8762C90.1311 39.2042 91.2765 40.3325 92.6177 41.1869C95.5384 43.1063 98.7047 44.6226 102.031 45.6949C104.003 46.35 105.997 46.9148 108.013 47.3892L107.991 47.4043ZM76.5827 78.6507C75.795 74.6147 73.9835 70.8487 71.322 67.714C69.5368 65.3673 67.2603 63.4392 64.6518 62.0647C63.5247 61.4877 62.2514 61.2596 60.9941 61.4095C60.5266 61.481 60.0913 61.691 59.7443 62.0124C59.3974 62.3338 59.1548 62.7519 59.0479 63.2126C58.7574 64.5111 58.8843 65.8681 59.4103 67.0903C59.9629 68.4928 60.7602 69.786 61.7651 70.9096C64.077 73.2841 66.8429 75.1692 69.8982 76.4529C72.0702 77.3993 74.3266 78.1385 76.6376 78.6605" fill="#307B74"/>
</svg>
