<svg width="160" height="156" viewBox="0 0 160 156" fill="none" xmlns="http://www.w3.org/2000/svg">
<path id="Vector" d="M1.20799 114.239C0.980497 113.726 0.80122 113.191 0.673065 112.644C0.407401 111.632 0.450139 110.574 0.794693 109.633C1.30142 108.537 2.16889 107.703 3.23623 107.287C3.77215 107.005 4.30808 106.722 4.81687 106.468C5.83868 105.919 6.85003 105.394 7.83425 104.899C9.83604 103.898 11.7544 102.924 13.579 102.003C17.2468 100.215 20.5517 98.6737 23.3664 97.4407C28.9854 94.9989 32.5896 93.8518 32.9156 94.547C33.2416 95.2422 30.2519 97.6684 25.0793 101.054C22.493 102.747 19.3584 104.685 15.863 106.765C14.0862 107.774 12.228 108.872 10.2803 109.979C9.339 110.528 8.37343 111.079 7.38356 111.631C8.09352 111.839 8.7955 112.085 9.48667 112.37C12.3832 113.317 17.0553 115.298 24.7871 117.882C35.7784 121.61 47.032 124.06 58.3525 125.19C66.6049 125.957 74.8529 125.776 82.9593 124.651C87.4239 124.019 91.8269 123.065 96.14 121.798C100.633 120.417 105.019 118.712 109.27 116.692C113.571 114.573 117.704 112.104 121.635 109.305C125.61 106.453 129.339 103.229 132.781 99.6666C139.618 92.6292 145.159 84.2308 149.14 74.8704C151.008 70.3874 152.548 65.7329 153.746 60.9476C154.836 56.4148 155.606 51.7776 156.051 47.075C156.89 39.0214 156.751 30.8154 155.637 22.665C154.807 17.113 153.583 11.6126 151.974 6.21429C151.171 4.27195 150.584 2.24473 150.227 0.178122C151.424 1.90447 152.39 3.79783 153.095 5.79684C155.248 11.1767 156.893 16.7501 158.006 22.4272C159.612 30.8691 160.145 39.4384 159.589 47.8891C159.292 52.8531 158.643 57.7605 157.648 62.5681C156.551 67.6804 155.069 72.6614 153.219 77.4628C149.268 87.5269 143.619 96.6073 136.549 104.262C132.991 108.122 129.122 111.628 124.981 114.743C120.881 117.804 116.551 120.504 112.031 122.821C103.376 127.224 94.0959 130.191 84.4834 131.628C76.0064 132.873 67.3699 133.093 58.7283 132.284C46.925 131.16 35.2061 128.401 23.858 124.073C18.5801 122.11 13.4283 119.699 8.45211 116.863L7.91304 116.528C11.7775 124.908 15.0473 133.565 17.692 142.418C20.0231 150.197 20.8359 155.165 20.1792 155.364C18.8451 155.812 12.3588 137.028 1.7228 115.387L1.20799 114.239Z" fill="#FF9D01"/>
</svg>
