<svg width="153" height="143" viewBox="0 0 153 143" fill="none" xmlns="http://www.w3.org/2000/svg">
<path d="M50.8836 30.5047L50.8835 30.5048C38.6327 36.3046 27.079 42.9817 16.2466 50.4172C9.1575 55.2834 7.02726 64.5246 10.6056 72.0829L23.9833 100.34C27.5641 107.903 36.057 112.102 44.3171 109.708C54.4311 106.772 64.3491 103.199 74.0119 99.01C75.2183 98.4757 76.5828 98.4201 77.8287 98.8546L77.8321 98.8559L106.78 109.206C107.542 109.478 108.368 109.517 109.153 109.32C109.938 109.122 110.647 108.697 111.19 108.096C111.733 107.496 112.086 106.748 112.204 105.947C112.323 105.146 112.2 104.328 111.854 103.597L111.854 103.597L102.907 84.6984L102.727 84.3197L103.087 84.1048C107.583 81.4202 111.993 78.5942 116.311 75.6312C123.396 70.7539 125.528 61.5178 121.947 53.9541L108.572 25.7027C104.991 18.1392 96.4986 13.9402 88.2386 16.3341C75.4292 20.0547 62.9378 24.7933 50.8836 30.5047Z" stroke="#F24E1E" stroke-width="0.922709"/>
<path fill-rule="evenodd" clip-rule="evenodd" d="M96.0214 9.43117C82.7027 13.4694 69.681 18.4974 57.0809 24.4671C44.2756 30.5295 32.1625 37.4321 20.7701 45.0574C13.1201 50.1778 10.5924 59.5428 14.1354 67.0264L27.0526 94.3108C30.598 101.8 39.4389 105.769 48.2505 103.103C58.7671 99.9155 69.101 96.1088 79.1901 91.7057C80.3367 91.1946 81.6187 91.1073 82.776 91.4613L112.255 100.732C113.119 101.003 114.064 101.018 114.97 100.777C115.875 100.535 116.701 100.047 117.343 99.3745C117.985 98.7019 118.414 97.8747 118.576 96.9976C118.738 96.1204 118.626 95.2328 118.253 94.4469L109.614 76.199C114.331 73.428 118.963 70.5209 123.504 67.482C131.149 62.351 133.68 52.9913 130.134 45.5024L117.219 18.2233C113.674 10.7344 104.833 6.76466 96.0214 9.43117Z" fill="#F24E1E"/>
</svg>
