<svg width="126" height="114" viewBox="0 0 126 114" fill="none" xmlns="http://www.w3.org/2000/svg">
<path d="M82.6668 26.7983L82.6667 26.7983C72.3478 21.6104 61.6822 17.1531 50.772 13.4689L82.6668 26.7983ZM82.6668 26.7983C93.154 32.0672 103.073 37.9763 112.4 44.4315C118.548 48.6871 120.532 56.0252 117.703 61.6552L107.067 82.8257C104.236 88.4597 97.1691 91.2405 90.0821 88.8514C81.4677 85.9434 73.0039 82.5517 64.7412 78.6964C63.7328 78.2171 62.5982 78.0893 61.5644 78.3489L61.5618 78.3495M82.6668 26.7983L61.5618 78.3495M61.5618 78.3495L37.3558 84.6264C36.7121 84.7928 36.0023 84.7742 35.3169 84.567C34.6315 84.3597 34.0072 83.9747 33.5236 83.4627L33.2694 83.7027L33.5236 83.4627C33.04 82.9506 32.7225 82.3386 32.604 81.7077C32.4856 81.0777 32.5703 80.456 32.841 79.9179L32.841 79.9178M61.5618 78.3495L32.841 79.9178M32.841 79.9178L39.9547 65.7589L40.099 65.4717M32.841 79.9178L40.099 65.4717M40.099 65.4717L39.825 65.3038M40.099 65.4717L39.825 65.3038M39.825 65.3038C35.9631 62.9371 32.1705 60.4657 28.4528 57.8932M39.825 65.3038L28.4528 57.8932M28.4528 57.8932C22.3078 53.6292 20.3223 46.295 23.1529 40.661L33.7872 19.4946C36.6178 13.8606 43.685 11.0798 50.7719 13.4688L28.4528 57.8932Z" stroke="#F8B816" stroke-width="0.699248"/>
<path fill-rule="evenodd" clip-rule="evenodd" d="M44.9404 8.07104C56.1714 11.9758 67.1735 16.632 77.8415 21.9951C88.6831 27.4421 98.962 33.5015 108.652 40.0806C115.159 44.4985 117.462 51.9167 114.645 57.5235L104.374 77.9654C101.555 83.5762 94.2329 86.1485 86.8026 83.5691C77.9344 80.4868 69.207 76.9342 60.6724 72.9325C59.7023 72.4695 58.6272 72.3276 57.6654 72.5358L33.17 78.0328C32.452 78.1933 31.6616 78.151 30.8985 77.9111C30.1355 77.6713 29.4343 77.2447 28.8834 76.6852C28.3325 76.1258 27.9567 75.4587 27.8035 74.7682C27.6504 74.0777 27.7268 73.3949 28.023 72.8061L34.8918 59.1345C30.8877 56.7105 26.9515 54.1855 23.0891 51.5635C16.5864 47.1378 14.2814 39.7235 17.1003 34.1127L27.3686 13.6748C30.1875 8.06403 37.51 5.49168 44.9404 8.07104Z" fill="#F8B816"/>
</svg>
