<?xml version="1.0" encoding="UTF-8" standalone="no" ?>
<!DOCTYPE svg PUBLIC "-//W3C//DTD SVG 1.1//EN" "http://www.w3.org/Graphics/SVG/1.1/DTD/svg11.dtd">
<svg xmlns="http://www.w3.org/2000/svg" xmlns:xlink="http://www.w3.org/1999/xlink" version="1.1" width="1080" height="1080" viewBox="0 0 1080 1080" xml:space="preserve">
<desc>Created with Fabric.js 5.2.4</desc>
<defs>
</defs>
<rect x="0" y="0" width="100%" height="100%" fill="transparent"></rect>
<g transform="matrix(1 0 0 1 540 540)" id="40b60096-bc2c-4c53-8c94-42017000e18f"  >
<rect style="stroke: none; stroke-width: 1; stroke-dasharray: none; stroke-linecap: butt; stroke-dashoffset: 0; stroke-linejoin: miter; stroke-miterlimit: 4; fill: rgb(255,255,255); fill-rule: nonzero; opacity: 1; visibility: hidden;" vector-effect="non-scaling-stroke"  x="-540" y="-540" rx="0" ry="0" width="1080" height="1080" />
</g>
<g transform="matrix(1 0 0 1 540 540)" id="b83a7b34-5fa1-4e34-be24-87317f311121"  >
</g>
<g transform="matrix(5.93 0 0 5.93 455.52 547.5)"  >
<path style="stroke: rgb(255,157,1); stroke-width: 16; stroke-dasharray: none; stroke-linecap: butt; stroke-dashoffset: 0; stroke-linejoin: miter; stroke-miterlimit: 4; fill: none; fill-rule: nonzero; opacity: 1;" vector-effect="non-scaling-stroke"  transform=" translate(-75.5, -97)" d="M 68 8 C 79.3194 46.74 95.1664 136.576 68 186" stroke-linecap="round" />
</g>
<g transform="matrix(5.93 0 0 5.93 547.5 550.47)"  >
<path style="stroke: rgb(255,157,1); stroke-width: 16; stroke-dasharray: none; stroke-linecap: butt; stroke-dashoffset: 0; stroke-linejoin: miter; stroke-miterlimit: 4; fill: none; fill-rule: nonzero; opacity: 1;" vector-effect="non-scaling-stroke"  transform=" translate(-91, -97.5)" d="M 8 107 C 41.1593 98.5917 120.782 83.3005 174 89.4013" stroke-linecap="round" />
</g>
<g transform="matrix(5.93 0 0 5.93 443.65 494.09)"  >
<path style="stroke: rgb(255,157,1); stroke-width: 16; stroke-dasharray: none; stroke-linecap: butt; stroke-dashoffset: 0; stroke-linejoin: miter; stroke-miterlimit: 4; fill: none; fill-rule: nonzero; opacity: 1;" vector-effect="non-scaling-stroke"  transform=" translate(-73.5, -88)" d="M 118 15 C 100.2 57.9651 57.48 147.316 29 161" stroke-linecap="round" />
</g>
<g transform="matrix(5.93 0 0 5.93 408.05 494.09)"  >
<path style="stroke: rgb(255,157,1); stroke-width: 16; stroke-dasharray: none; stroke-linecap: butt; stroke-dashoffset: 0; stroke-linejoin: miter; stroke-miterlimit: 4; fill: none; fill-rule: nonzero; opacity: 1;" vector-effect="non-scaling-stroke"  transform=" translate(-67.5, -88)" d="M 25 46 C 46.199 57.854 92.8777 91.2496 110 130" stroke-linecap="round" />
</g>
</svg>